<?xml version="1.0"?>
<svg version="1.1" xmlns="http://www.w3.org/2000/svg" width="400" height="200" style=""><path fill="#" d="M16.63818359375,122.3974609375q0-0.93994140625,0.64453125-1.195068359375t1.396484375-0.255126953125q1.31591796875,0,2.22900390625,1.181640625t1.732177734375,2.591552734375t1.624755859375,2.591552734375t1.90673828125,1.181640625q0.83251953125,0,1.517333984375-0.416259765625t1.181640625-1.04736328125t0.765380859375-1.42333984375t0.2685546875-1.571044921875q0-2.041015625-0.819091796875-4.21630859375t-2.0947265625-4.48486328125t-2.698974609375-4.7265625t-2.685546875-4.91455078125t-2.0947265625-5.089111328125t-0.83251953125-5.223388671875q0-3.94775390625,2.36328125-6.123046875t6.23046875-2.17529296875q1.31591796875,0,2.65869140625,0.3759765625t2.470703125,1.1279296875t1.839599609375,1.85302734375t0.711669921875,2.578125q0,0.4833984375-0.711669921875,0.631103515625t-1.033935546875,0.147705078125q-0.4833984375,0-1.04736328125-0.120849609375t-0.72509765625-0.657958984375t-0.45654296875-1.2353515625t-0.738525390625-1.302490234375t-1.04736328125-1.04736328125t-1.329345703125-0.443115234375q-1.20849609375,0-2.054443359375,0.496826171875t-1.36962890625,1.329345703125t-0.77880859375,1.866455078125t-0.255126953125,2.135009765625q0,2.578125,0.88623046875,5.196533203125t2.2021484375,5.2099609375t2.860107421875,5.115966796875t2.860107421875,4.91455078125t2.2021484375,4.6728515625t0.88623046875,4.32373046875q0,1.826171875-0.859375,3.08837890625t-2.17529296875,2.054443359375t-2.913818359375,1.15478515625t-3.128662109375,0.362548828125q-1.63818359375,0-3.35693359375-0.657958984375t-3.08837890625-1.812744140625t-2.255859375-2.698974609375t-0.88623046875-3.343505859375z M39.698168945312,100.4296875q0-0.3759765625,0.8056640625-0.64453125t1.826171875-0.443115234375t1.973876953125-0.255126953125t1.302490234375-0.13427734375q0-0.72509765625,0.0537109375-1.463623046875t0.29541015625-1.31591796875t0.765380859375-0.926513671875t1.463623046875-0.34912109375q0.77880859375,0,1.181640625,0.18798828125t0.859375,0.77880859375q0.107421875,0.322265625,0.107421875,0.61767578125l0,0.899658203125t-0.0537109375,0.926513671875q0.99365234375-0.107421875,1.973876953125-0.255126953125t1.973876953125-0.147705078125q0.72509765625,0,0.99365234375,0.02685546875t0.537109375,0.64453125q0.21484375,0.61767578125-0.523681640625,0.93994140625t-1.7724609375,0.4833984375t-2.054443359375,0.24169921875t-1.2353515625,0.08056640625q-0.322265625,4.619140625-0.657958984375,9.15771484375t-0.335693359375,9.21142578125q0,2.0947265625,0.13427734375,4.32373046875t0.751953125,4.21630859375q0.1611328125,0.61767578125,0.537109375,1.15478515625t0.3759765625,1.15478515625q0,0.3759765625-0.29541015625,0.5908203125t-0.711669921875,0.362548828125t-0.83251953125,0.174560546875t-0.684814453125,0.02685546875q-1.69189453125,0-2.578125-1.26220703125t-1.275634765625-3.021240234375t-0.416259765625-3.612060546875t-0.02685546875-3.0078125q0-2.36328125,0.093994140625-4.833984375t0.228271484375-4.8876953125t0.3759765625-4.7265625t0.56396484375-4.296875q-0.93994140625,0.107421875-1.839599609375,0.24169921875t-1.839599609375,0.13427734375q-0.21484375,0-0.577392578125-0.02685546875t-0.684814453125-0.13427734375t-0.550537109375-0.29541015625t-0.228271484375-0.537109375z M59.696630859375,117.9931640625q0-1.53076171875,0.389404296875-3.155517578125t1.2353515625-2.92724609375t2.135009765625-2.12158203125t3.115234375-0.819091796875q1.36962890625,0,2.886962890625,0.469970703125t2.779541015625,1.3427734375t2.054443359375,2.135009765625t0.792236328125,2.81982421875q0,1.8798828125-0.684814453125,3.57177734375t-1.920166015625,3.021240234375t-2.886962890625,2.0947265625t-3.585205078125,0.765380859375q-1.58447265625,0-2.76611328125-0.577392578125t-1.973876953125-1.544189453125t-1.181640625-2.28271484375t-0.389404296875-2.79296875z M63.644384765625,117.939453125q0,0.4833984375,0.147705078125,1.42333984375t0.443115234375,1.839599609375t0.765380859375,1.5576171875t1.141357421875,0.604248046875q1.42333984375-0.1611328125,2.349853515625-0.926513671875t1.50390625-1.866455078125t0.8056640625-2.39013671875t0.228271484375-2.44384765625q0-1.47705078125-0.577392578125-2.470703125t-1.893310546875-1.611328125q0,0.0537109375,0.0537109375,0.0537109375t0.0537109375-0.0537109375l-0.67138671875-0.1611328125q-0.2685546875-0.107421875-0.657958984375-0.24169921875t-0.765380859375-0.5908203125q-1.04736328125,0.3759765625-1.624755859375,0.966796875t-0.872802734375,1.436767578125t-0.362548828125,2.027587890625t-0.067138671875,2.8466796875z M80.071069335937,117.6171875l0-0.77880859375q0-0.966796875,0.0537109375-1.826171875q0.0537109375-1.20849609375,0.0537109375-1.9873046875q0-0.4296875,0.0537109375-0.980224609375t0.2685546875-0.872802734375q0.2685546875-0.2685546875,0.631103515625-0.550537109375t0.792236328125-0.281982421875q1.36962890625,0,2.1484375,0.308837890625t0.83251953125,1.275634765625l0.107421875,0.83251953125q0.4833984375-1.15478515625,1.2890625-2.860107421875t1.866455078125-3.24951171875t2.39013671875-2.6318359375t2.806396484375-1.087646484375q1.36962890625,0,2.255859375,1.2890625t1.409912109375,3.289794921875t0.738525390625,4.4580078125t0.29541015625,4.820556640625t0.107421875,4.310302734375t0.18798828125,2.940673828125q0.107421875,0.83251953125,0.362548828125,1.759033203125t0.255126953125,1.705322265625q0,0.21484375-0.308837890625,0.416259765625t-0.657958984375,0.335693359375t-0.711669921875,0.21484375t-0.523681640625,0.08056640625q-1.04736328125,0-1.490478515625-1.571044921875t-0.550537109375-3.934326171875t-0.107421875-5.115966796875t-0.18798828125-5.115966796875t-0.765380859375-3.934326171875t-1.839599609375-1.624755859375q-1.15478515625,0-2.39013671875,1.490478515625t-2.12158203125,3.961181640625q-0.859375,2.470703125-1.181640625,5.61279296875q-0.107421875,0.99365234375-0.107421875,1.9873046875q0,2.17529296875,0.45654296875,4.3505859375q0.0537109375,0.3759765625-0.308837890625,0.56396484375t-0.899658203125,0.29541015625t-1.087646484375,0.13427734375t-0.845947265625,0.02685546875q-1.04736328125,0-1.678466796875-0.738525390625t-0.980224609375-1.893310546875t-0.469970703125-2.591552734375t-0.147705078125-2.833251953125z M104.473828125,116.83837890625q0-2.470703125,0.577392578125-4.847412109375t0.980224609375-4.739990234375q0.107421875-0.61767578125,0.845947265625-0.765380859375t1.248779296875-0.147705078125q0.88623046875,0,1.42333984375,0.2685546875q0.21484375,0.107421875,0.40283203125,0.24169921875t0.18798828125,0.34912109375q0,2.3095703125-0.550537109375,4.51171875t-0.550537109375,4.6728515625q0,0.83251953125,0.120849609375,1.571044921875t0.228271484375,1.463623046875l0.1611328125,0.77880859375q0,0.21484375,0.02685546875,0.3759765625t0.08056640625,0.3759765625q0,0.4833984375-0.684814453125,0.657958984375t-1.195068359375,0.174560546875q-0.77880859375,0-1.436767578125-0.308837890625t-1.033935546875-1.060791015625l-0.3759765625-0.77880859375q-0.322265625-0.61767578125-0.322265625-1.383056640625t-0.13427734375-1.409912109375z M106.192578125,100.67138671875l0-0.51025390625q0-1.26220703125,0.631103515625-2.255859375t1.893310546875-0.99365234375q0.1611328125,0,0.308837890625,0.02685546875t0.308837890625,0.02685546875q0.322265625,0.0537109375,0.845947265625,0.255126953125t0.523681640625,0.631103515625l0,0.0537109375q-0.107421875,0.21484375-0.13427734375,0.443115234375t-0.13427734375,0.389404296875l0.0537109375-0.0537109375q-0.322265625,0.83251953125-0.523681640625,1.3427734375t-0.443115234375,0.819091796875t-0.604248046875,0.443115234375t-1.033935546875,0.13427734375q-0.107421875,0-0.3759765625-0.02685546875t-0.577392578125-0.107421875t-0.523681640625-0.21484375t-0.21484375-0.40283203125z M116.20080566406,106.25732421875q0-0.2685546875,0.416259765625-0.45654296875t0.99365234375-0.2685546875t1.10107421875-0.13427734375t0.792236328125-0.0537109375q0.107421875-0.72509765625,0.308837890625-1.96044921875t0.496826171875-2.645263671875t0.738525390625-2.833251953125t1.07421875-2.578125t1.490478515625-1.893310546875t2.01416015625-0.738525390625l-0.0537109375,0q0.3759765625-0.0537109375,0.738525390625-0.08056640625t0.738525390625-0.02685546875q0.88623046875,0,1.920166015625,0.34912109375t1.920166015625,0.980224609375t1.490478515625,1.517333984375t0.604248046875,1.8798828125q0,0.77880859375-0.389404296875,1.678466796875t-1.356201171875,0.899658203125q-0.322265625,0-0.657958984375-0.1611328125t-0.631103515625-0.34912109375q0.107421875-0.61767578125,0.107421875-1.2353515625q0-0.322265625-0.02685546875-0.61767578125q-0.08056640625-0.93994140625-0.40283203125-1.651611328125t-0.926513671875-1.1279296875t-1.436767578125-0.308837890625q-1.10107421875,0.1611328125-1.651611328125,1.3427734375t-0.765380859375,2.806396484375t-0.2685546875,3.30322265625t-0.21484375,2.725830078125q1.26220703125,0.107421875,2.135009765625,0.107421875l2.188720703125,0q0.21484375,0,0.738525390625,0.02685546875t1.0205078125,0.107421875t0.88623046875,0.281982421875t0.389404296875,0.523681640625q0,0.2685546875-0.21484375,0.469970703125t-0.523681640625,0.281982421875t-0.64453125,0.107421875t-0.550537109375,0.02685546875q-0.93994140625,0-1.597900390625-0.08056640625t-1.26220703125-0.147705078125t-1.26220703125-0.067138671875t-1.544189453125,0.18798828125q-0.2685546875,2.98095703125-0.4296875,5.908203125t-0.1611328125,5.908203125q0,4.6728515625,0.29541015625,9.15771484375t1.07421875,9.10400390625q0.107421875,0.4296875,0.18798828125,0.980224609375t0.08056640625,1.060791015625q0,0.4833984375-0.29541015625,0.792236328125t-0.738525390625,0.443115234375t-0.9130859375,0.18798828125t-0.845947265625,0.0537109375q-1.53076171875,0-2.1484375-0.469970703125t-0.88623046875-1.893310546875q-0.67138671875-3.78662109375-0.859375-7.640380859375t-0.18798828125-7.774658203125q0-3.84033203125,0.281982421875-7.667236328125t0.711669921875-7.613525390625q-0.21484375,0-0.738525390625,0.02685546875t-1.04736328125,0t-0.9130859375-0.18798828125t-0.389404296875-0.56396484375z M136.01127929688,116.83837890625q0-2.470703125,0.577392578125-4.847412109375t0.980224609375-4.739990234375q0.107421875-0.61767578125,0.845947265625-0.765380859375t1.248779296875-0.147705078125q0.88623046875,0,1.42333984375,0.2685546875q0.21484375,0.107421875,0.40283203125,0.24169921875t0.18798828125,0.34912109375q0,2.3095703125-0.550537109375,4.51171875t-0.550537109375,4.6728515625q0,0.83251953125,0.120849609375,1.571044921875t0.228271484375,1.463623046875l0.1611328125,0.77880859375q0,0.21484375,0.02685546875,0.3759765625t0.08056640625,0.3759765625q0,0.4833984375-0.684814453125,0.657958984375t-1.195068359375,0.174560546875q-0.77880859375,0-1.436767578125-0.308837890625t-1.033935546875-1.060791015625l-0.3759765625-0.77880859375q-0.322265625-0.61767578125-0.322265625-1.383056640625t-0.13427734375-1.409912109375z M137.73002929688,100.67138671875l0-0.51025390625q0-1.26220703125,0.631103515625-2.255859375t1.893310546875-0.99365234375q0.1611328125,0,0.308837890625,0.02685546875t0.308837890625,0.02685546875q0.322265625,0.0537109375,0.845947265625,0.255126953125t0.523681640625,0.631103515625l0,0.0537109375q-0.107421875,0.21484375-0.13427734375,0.443115234375t-0.13427734375,0.389404296875l0.0537109375-0.0537109375q-0.322265625,0.83251953125-0.523681640625,1.3427734375t-0.443115234375,0.819091796875t-0.604248046875,0.443115234375t-1.033935546875,0.13427734375q-0.107421875,0-0.3759765625-0.02685546875t-0.577392578125-0.107421875t-0.523681640625-0.21484375t-0.21484375-0.40283203125z M147.73825683594,118.583984375q0-1.8798828125,0.416259765625-4.43115234375t1.409912109375-4.833984375t2.618408203125-3.880615234375t4.095458984375-1.597900390625q2.3095703125,0,3.46435546875,1.329345703125t1.15478515625,3.585205078125q0,1.47705078125-0.550537109375,3.236083984375t-1.571044921875,3.330078125t-2.4169921875,2.618408203125t-3.115234375,1.04736328125l-0.6982421875-0.0537109375q0,0.72509765625,0.21484375,1.947021484375t0.631103515625,2.430419921875t1.07421875,2.12158203125t1.597900390625,0.9130859375q1.36962890625,0,2.6318359375-1.10107421875t2.39013671875-2.44384765625t2.0947265625-2.44384765625t1.7724609375-1.10107421875q0.4296875,0,0.88623046875,0.13427734375t0.51025390625,0.751953125q0,0.3759765625-0.201416015625,0.61767578125t-0.362548828125,0.537109375q-0.83251953125,1.42333984375-1.812744140625,2.71240234375t-2.215576171875,2.33642578125t-2.698974609375,1.651611328125t-3.236083984375,0.604248046875q-2.3095703125,0-3.84033203125-0.819091796875t-2.470703125-2.2021484375t-1.356201171875-3.19580078125t-0.416259765625-3.800048828125z M152.54538574219,116.54296875l0.751953125,0.67138671875q0.537109375,0.4833984375,1.07421875,0.21484375t0.966796875-0.980224609375t0.792236328125-1.759033203125t0.64453125-2.1484375t0.416259765625-2.1484375t0.13427734375-1.74560546875l0-0.9130859375t-0.08056640625-0.966796875t-0.281982421875-0.765380859375t-0.631103515625-0.389404296875q-0.13427734375-0.02685546875-0.24169921875-0.02685546875q-0.9130859375,0-1.5576171875,1.15478515625q-0.6982421875,1.2890625-1.1279296875,3.128662109375t-0.61767578125,3.773193359375t-0.24169921875,2.900390625z M170.18056640625,117.16064453125q0-2.0947265625,0.443115234375-3.800048828125t1.409912109375-2.886962890625t2.537841796875-1.839599609375t3.826904296875-0.657958984375q1.26220703125,0,2.578125,0.335693359375t2.255859375,1.248779296875q0-0.537109375,0.107421875-2.215576171875t0.2685546875-3.907470703125t0.335693359375-4.6728515625t0.308837890625-4.53857421875t0.24169921875-3.51806640625t0.1611328125-1.611328125q0.2685546875-0.77880859375,0.99365234375-0.926513671875t1.36962890625-0.147705078125q1.69189453125,0,2.081298828125,0.537109375t0.389404296875,2.1484375q0,5.88134765625-0.523681640625,11.708984375t-0.523681640625,11.708984375q0,3.78662109375,0.147705078125,7.613525390625t1.060791015625,7.532958984375l0.29541015625,0.2685546875l0.1611328125,0.4833984375l-0.40283203125,0.61767578125q-1.0205078125,0.64453125-2.36328125,0.64453125l-0.107421875,0q-1.36962890625,0-2.5244140625-0.64453125q-0.4296875-0.2685546875-0.711669921875-1.597900390625t-0.443115234375-2.92724609375t-0.24169921875-3.074951171875t-0.13427734375-2.0947265625q-0.93994140625,2.1484375-2.564697265625,3.692626953125t-4.095458984375,1.544189453125q-1.93359375,0-3.1689453125-0.83251953125t-1.920166015625-2.12158203125t-0.966796875-2.886962890625t-0.281982421875-3.182373046875z M173.430078125,117.32177734375q0,0.61767578125,0.147705078125,1.826171875t0.469970703125,2.4169921875t0.899658203125,2.1484375t1.517333984375,0.93994140625q1.26220703125-0.61767578125,2.28271484375-2.054443359375t1.759033203125-3.1689453125t1.15478515625-3.46435546875t0.416259765625-2.994384765625q0-1.58447265625-1.15478515625-2.6318359375t-2.76611328125-1.04736328125q-0.4833984375,0-0.980224609375,0.18798828125t-0.926513671875,0.4296875q-0.99365234375,0.93994140625-1.544189453125,1.705322265625t-0.83251953125,1.58447265625t-0.362548828125,1.812744140625t-0.08056640625,2.3095703125z"/><path fill="#" d=""/></svg>
